<svg version="1.1" id="Layer_1" xmlns="http://www.w3.org/2000/svg" xmlns:xlink="http://www.w3.org/1999/xlink" x="0px" y="0px"
	 width="100%" viewBox="0 0 2152 1952" enable-background="new 0 0 2152 1952" xml:space="preserve">
<path fill="#FEFEFE" opacity="1.000000" stroke="none" 
	d="
M2154.000000,746.000000 
	C2154.000000,1149.284424 2154.000000,1551.568726 2154.000000,1953.926514 
	C1436.802979,1953.926514 719.605896,1953.926514 2.204417,1953.926514 
	C2.204417,1303.548828 2.204417,653.097656 2.204417,2.323208 
	C719.333191,2.323208 1436.666626,2.323208 2154.000000,2.323208 
	C2154.000000,249.727692 2154.000000,497.363831 2154.000000,746.000000 
M825.747070,1420.237549 
	C825.747070,1420.237549 825.529907,1420.336182 825.804199,1421.390137 
	C826.395569,1421.770996 826.987000,1422.151855 827.700256,1422.270508 
	C827.700256,1422.270508 827.453918,1422.421875 827.700745,1423.462280 
	C828.262817,1423.859497 828.824951,1424.256714 829.568665,1424.182739 
	C829.568665,1424.182739 829.278076,1424.595703 829.618164,1425.923950 
	C843.292175,1441.776245 851.747803,1460.243286 858.220642,1480.031250 
	C862.741882,1493.852905 868.671814,1507.299072 875.004761,1520.414673 
	C879.704285,1530.147339 886.061707,1539.079712 891.818298,1548.189697 
	C891.818298,1548.189697 891.595337,1548.224365 891.785156,1549.615356 
	C895.085022,1553.902954 898.384827,1558.190552 901.736755,1562.266602 
	C901.736755,1562.266602 901.528442,1562.330566 901.745239,1563.384155 
	C902.292419,1563.803955 902.839600,1564.223755 903.565979,1564.184082 
	C903.565979,1564.184082 903.276672,1564.583496 903.604126,1565.930298 
	C908.054871,1574.100830 914.501587,1580.537109 921.874939,1586.623535 
	C921.666138,1581.956299 920.603638,1577.676025 919.239380,1573.494385 
	C907.544800,1537.646973 891.609924,1503.230225 883.230103,1464.857422 
	C882.941284,1463.936279 882.652466,1463.015015 882.811707,1460.309570 
	C883.052734,1455.656860 882.830688,1450.925049 883.609314,1446.364136 
	C889.027283,1414.627686 880.495300,1386.236084 862.745300,1360.255615 
	C853.870728,1347.266113 843.263855,1335.823364 828.183044,1329.810181 
	C828.183044,1329.810181 828.360535,1329.687744 827.770630,1328.500977 
	C811.283813,1318.593872 798.688477,1313.468750 790.282715,1313.428711 
	C790.025391,1314.935303 789.418335,1316.539795 789.537720,1318.088257 
	C790.915466,1335.956543 791.762878,1353.898193 794.032043,1371.656738 
	C796.577698,1391.579224 808.672668,1406.047974 823.910278,1418.123779 
	C823.910278,1418.123779 823.700134,1418.171875 823.929871,1419.243042 
	C824.506042,1419.648438 825.082214,1420.053711 825.747070,1420.237549 
M468.475769,1501.298950 
	C472.993988,1506.168335 477.512238,1511.037720 482.590088,1517.119629 
	C489.760834,1524.068604 496.931549,1531.017578 504.649597,1539.186890 
	C510.939758,1544.202637 517.229919,1549.218384 523.804565,1555.485107 
	C525.207336,1556.988403 526.610107,1558.491699 528.574219,1561.177856 
	C531.018799,1562.860352 533.463440,1564.542725 536.538208,1567.396973 
	C545.403931,1574.782227 553.904968,1582.668091 563.211609,1589.448242 
	C582.431580,1603.450684 602.047729,1616.911743 621.586853,1630.471680 
	C624.797791,1632.699829 628.446533,1634.297119 632.602051,1637.341553 
	C658.045898,1653.136475 684.277222,1667.416504 711.492249,1679.994141 
	C743.851074,1694.949219 776.855225,1708.015747 811.054749,1718.160522 
	C846.119080,1728.561523 881.823669,1735.926147 917.859802,1741.829102 
	C925.230652,1743.036621 932.726013,1743.483765 942.642212,1744.547119 
	C939.180664,1740.811401 937.640076,1738.765625 935.734436,1737.150391 
	C913.135986,1717.997192 902.343262,1694.038696 905.812439,1664.207275 
	C906.539673,1657.953125 907.543274,1651.711426 907.875000,1645.435303 
	C908.401611,1635.470581 909.127686,1625.380493 904.041748,1616.130005 
	C899.397034,1607.682251 894.952759,1599.106689 889.919983,1590.893799 
	C879.512146,1573.909790 868.358215,1557.372070 858.287048,1540.195801 
	C848.665283,1523.786011 841.823975,1506.050293 836.178833,1487.874268 
	C835.188965,1484.687012 834.841431,1480.872559 830.684631,1479.331055 
	C827.705994,1499.839600 825.139221,1519.871094 821.807495,1539.774414 
	C818.619751,1558.817505 813.702698,1577.451294 805.466797,1595.048828 
	C800.628723,1605.386475 800.072632,1605.760132 789.708130,1602.176392 
	C759.448608,1591.713989 730.909973,1577.494873 703.004639,1561.953125 
	C689.960571,1554.688232 677.068787,1547.149902 663.252380,1538.692993 
	C659.861267,1536.608521 656.285645,1534.770264 653.113220,1532.393799 
	C643.064819,1524.866577 633.118530,1517.200562 623.222656,1509.472778 
	C609.690613,1498.906128 595.162903,1489.335083 582.965149,1477.393188 
	C550.511230,1445.620728 516.965271,1414.750732 492.379303,1375.819214 
	C481.036682,1357.858276 467.680725,1341.166870 456.380829,1323.181519 
	C437.942963,1293.835327 422.622101,1262.818481 409.231354,1230.815430 
	C399.328583,1207.148438 391.687256,1182.775391 384.209625,1158.285645 
	C369.994843,1111.731323 360.820038,1064.154541 358.532043,1015.658264 
	C356.951477,982.156494 355.798157,948.414124 359.890808,914.886841 
	C362.419189,894.174133 364.504578,873.373657 368.004028,852.819458 
	C378.157104,793.184875 396.612762,736.085327 422.376495,681.373230 
	C437.855621,648.501648 455.236603,616.622437 476.254425,586.966248 
	C490.642548,566.664490 506.454956,547.373413 521.583069,527.594055 
	C527.271179,520.157043 527.139954,520.153809 522.117249,512.092529 
	C510.500061,493.447235 499.015625,474.723846 491.158112,454.070526 
	C489.451508,449.584778 487.784668,445.083893 486.226929,440.929840 
	C475.862152,450.750214 465.478790,459.219116 456.776978,469.159943 
	C444.329529,483.379669 432.705963,498.376373 421.477478,513.592407 
	C409.054352,530.427429 396.787720,547.453552 385.673645,565.162537 
	C364.945587,598.190308 347.587372,633.051086 331.559692,668.600647 
	C315.246033,704.784546 302.309357,742.155334 292.084595,780.425110 
	C282.144562,817.629089 274.798950,855.381348 271.793304,893.868835 
	C269.908813,918.000549 267.247070,942.099365 266.273071,966.266968 
	C265.161926,993.837463 266.959991,1021.398254 269.854858,1048.862793 
	C271.488831,1064.364258 271.838043,1080.073853 274.553009,1095.372681 
	C279.358978,1122.453735 284.450623,1149.575806 291.425995,1176.154907 
	C298.584473,1203.431641 307.473663,1230.315186 316.877014,1256.921387 
	C323.512115,1275.695068 331.590973,1294.046265 340.260864,1311.989136 
	C349.796234,1331.723267 360.301636,1351.029419 371.226288,1370.038208 
	C379.491241,1384.418823 389.078461,1398.039795 398.608154,1413.229004 
	C402.980774,1418.875122 407.353424,1424.521118 412.002594,1431.491333 
	C414.621185,1435.010742 417.239777,1438.530029 420.047974,1443.376099 
	C422.638580,1446.342896 425.229156,1449.309692 428.078644,1453.608276 
	C434.780762,1462.163696 441.228546,1470.935425 448.261414,1479.209717 
	C454.438507,1486.477173 461.271301,1493.187378 468.475769,1501.298950 
M656.243469,529.929871 
	C650.746155,523.246399 645.144592,516.645569 639.770081,509.864685 
	C620.123962,485.077576 599.454590,461.008667 581.199646,435.232300 
	C550.043274,391.238708 543.360962,343.166534 561.241089,291.777802 
	C573.615784,256.212189 593.059875,224.379715 612.164185,192.360031 
	C625.130737,170.627487 638.986816,149.426163 652.395264,127.956161 
	C653.975098,125.426468 656.173950,123.014198 655.933716,118.620941 
	C651.676514,121.327133 648.061096,123.105675 645.055603,125.614777 
	C607.474487,156.989014 574.581421,192.589233 548.375793,234.087921 
	C529.442505,264.070251 513.161682,295.272705 504.779877,330.101868 
	C497.652679,359.717712 496.069977,389.309387 503.228424,419.177246 
	C507.142731,435.509460 513.175781,451.042969 521.161865,465.665863 
	C531.347961,484.317017 542.531128,502.423584 553.636536,522.121460 
	C568.446411,544.667480 582.751282,567.565125 598.159851,589.694275 
	C646.487366,659.100769 687.791687,732.415466 721.404480,809.996094 
	C765.592285,911.984619 795.505127,1018.291504 816.182617,1127.326294 
	C818.851990,1141.402222 820.905090,1155.603394 823.887817,1169.609375 
	C826.863586,1183.582397 835.407715,1193.437012 849.771057,1195.408447 
	C876.882690,1199.129639 903.482666,1197.890625 928.683716,1184.863892 
	C945.701843,1176.067017 954.411255,1164.033813 951.686890,1144.043823 
	C947.458130,1113.015869 944.733948,1081.783447 940.560913,1050.746826 
	C932.579224,991.384033 917.542114,933.778687 896.162048,877.810547 
	C871.915955,814.339478 842.349426,753.706787 800.796570,699.545532 
	C788.661499,683.728271 775.540283,668.667603 762.376953,652.004395 
	C760.726379,649.923889 759.160522,647.769043 757.412292,645.774109 
	C733.960815,619.013916 710.492188,592.268799 687.009521,565.536011 
	C676.935425,554.067627 666.819092,542.636292 656.243469,529.929871 
M1375.833862,121.691368 
	C1375.833862,121.691368 1375.350830,121.506424 1375.350830,121.506424 
	C1375.350830,121.506424 1376.013672,122.028580 1376.125244,123.436333 
	C1382.000732,133.113495 1387.940430,142.752335 1393.739868,152.474854 
	C1412.502686,183.930084 1431.531006,215.233093 1449.831177,246.955811 
	C1461.695679,267.522339 1470.095337,289.575043 1475.240967,312.888428 
	C1481.511475,341.297424 1480.368286,368.976440 1469.885254,396.325378 
	C1461.697754,417.685211 1450.909546,437.469482 1436.160400,454.918915 
	C1387.130615,512.924744 1337.796753,570.674011 1288.852051,628.751404 
	C1267.181396,654.465881 1244.884766,679.798157 1225.099976,706.928467 
	C1173.753174,777.339294 1138.224731,855.615295 1113.825684,939.093506 
	C1093.837280,1007.481079 1083.754395,1077.575562 1077.179565,1148.326660 
	C1075.799927,1163.172485 1081.278320,1173.035767 1093.682861,1180.661865 
	C1121.335327,1197.662476 1151.267212,1200.501221 1182.335083,1195.415405 
	C1195.290161,1193.294678 1203.489990,1185.093018 1205.806519,1171.500854 
	C1208.994751,1152.794556 1212.435547,1134.127441 1216.052734,1115.498901 
	C1232.645020,1030.046875 1254.610352,946.104492 1285.965942,864.744507 
	C1303.708252,818.707336 1323.780029,773.713745 1346.336548,729.889343 
	C1375.505737,673.217285 1410.518188,620.113098 1447.122803,567.999146 
	C1471.069092,533.906799 1493.331299,498.652588 1511.362305,461.033508 
	C1531.195679,419.653992 1535.581421,376.437164 1524.744751,331.561279 
	C1516.663330,298.095276 1501.984985,267.763336 1484.060059,238.673477 
	C1457.579468,195.699188 1424.945312,158.227310 1385.329834,126.916840 
	C1382.618896,124.774162 1379.056396,123.709000 1375.833862,121.691368 
M1604.998535,678.007568 
	C1608.451416,685.571655 1612.276245,692.990906 1615.287476,700.726990 
	C1624.202026,723.630493 1634.029419,746.279846 1641.233032,769.725159 
	C1652.826660,807.458679 1662.802979,845.710510 1666.245239,885.281799 
	C1668.198242,907.732056 1670.933594,930.158081 1671.753906,952.652100 
	C1672.832031,982.211487 1671.543823,1011.726379 1668.429077,1041.257568 
	C1665.708984,1067.047485 1661.443604,1092.440308 1656.093018,1117.751099 
	C1646.839966,1161.520630 1632.334839,1203.605103 1614.419067,1244.433960 
	C1598.644043,1280.383789 1579.630249,1314.730835 1557.645752,1347.327759 
	C1540.730591,1372.407837 1523.297729,1397.167236 1502.144653,1418.915527 
	C1480.124390,1441.555420 1458.163818,1464.321411 1435.007324,1485.769165 
	C1411.107056,1507.906006 1384.573975,1526.806152 1356.936157,1544.203125 
	C1324.185913,1564.818237 1289.759399,1582.056396 1254.398926,1597.562500 
	C1247.481934,1600.595581 1240.357910,1603.156616 1232.832520,1606.131836 
	C1224.568481,1592.642090 1218.230103,1579.170898 1214.182739,1564.745483 
	C1207.717896,1541.704346 1203.337646,1518.269897 1201.803345,1494.323730 
	C1201.507446,1489.707764 1199.865112,1485.177979 1198.617798,1479.596191 
	C1196.894653,1481.586548 1196.031006,1482.224487 1195.662231,1483.076660 
	C1194.474731,1485.819824 1193.264282,1488.581787 1192.426270,1491.442993 
	C1185.152466,1516.280029 1173.185181,1538.782471 1159.041382,1560.325684 
	C1149.194824,1575.323364 1139.927734,1590.711426 1130.725952,1606.118896 
	C1124.852905,1615.952759 1121.314209,1626.616943 1121.928345,1638.310791 
	C1122.624634,1651.569824 1123.464233,1664.822388 1124.023682,1678.087036 
	C1124.468262,1688.630127 1121.341797,1698.395386 1117.092896,1707.924316 
	C1112.223633,1718.844849 1104.200317,1727.200073 1095.812744,1735.366211 
	C1093.423340,1737.692871 1089.980957,1739.512085 1089.418823,1744.948608 
	C1101.010376,1743.224854 1111.857178,1742.012207 1122.538086,1739.942749 
	C1146.935059,1735.215942 1171.604126,1731.351074 1195.507202,1724.759277 
	C1223.335205,1717.085205 1250.739380,1707.619263 1277.828857,1697.584839 
	C1314.985352,1683.821411 1349.934937,1665.301025 1384.079956,1645.245605 
	C1413.080811,1628.211548 1440.502563,1608.950928 1467.279663,1588.618286 
	C1490.096313,1571.293213 1511.683716,1552.541504 1531.955811,1532.480835 
	C1551.296265,1513.342041 1569.518555,1492.929443 1586.819702,1471.913940 
	C1604.531738,1450.399170 1621.576538,1428.171875 1637.039917,1405.005859 
	C1662.539551,1366.804199 1683.934204,1326.219116 1702.147827,1283.988037 
	C1715.874268,1252.161255 1726.983887,1219.411865 1735.865601,1185.983521 
	C1746.686157,1145.257568 1754.040283,1103.897095 1758.667114,1061.897095 
	C1761.437622,1036.746704 1760.926392,1011.517761 1763.653442,986.432068 
	C1764.428101,979.305969 1762.579712,971.918945 1762.198120,964.637817 
	C1761.416138,949.712708 1761.246704,934.742676 1760.025635,919.856689 
	C1758.509155,901.369995 1756.352173,882.929565 1754.170288,864.504944 
	C1750.455688,833.139221 1742.956421,802.490845 1734.776489,772.103088 
	C1723.087158,728.677673 1706.779175,686.789612 1687.793945,646.070312 
	C1672.886597,614.097107 1655.327515,583.488953 1636.079102,553.864197 
	C1611.387695,515.862305 1584.095825,479.942688 1552.438477,447.437225 
	C1550.176025,445.114227 1547.715820,442.983826 1544.477905,439.948486 
	C1534.336060,469.741638 1519.757690,496.148102 1503.366211,522.028137 
	C1543.851929,569.817078 1578.694702,620.264832 1604.998535,678.007568 
M1082.674072,1389.823730 
	C1091.300171,1379.683594 1099.868652,1369.493530 1108.569458,1359.417847 
	C1116.400757,1350.348877 1124.922607,1341.822754 1132.188965,1332.329346 
	C1155.476562,1301.905151 1169.763062,1266.580322 1185.695557,1232.173950 
	C1185.812500,1231.921509 1185.637695,1231.533813 1185.525391,1230.589478 
	C1183.029297,1229.681885 1180.303833,1228.551880 1177.495850,1227.691040 
	C1143.430054,1217.248047 1109.372681,1206.775879 1075.269653,1196.455688 
	C1053.333496,1189.817383 1060.016235,1188.967651 1042.568848,1202.648804 
	C1033.217529,1209.981567 1024.057739,1217.558838 1014.588867,1225.205688 
	C1003.754150,1216.774292 993.268921,1209.115723 983.378967,1200.752930 
	C976.087158,1194.586914 969.030823,1191.706665 960.059998,1197.079956 
	C957.273376,1198.749146 953.823181,1199.368896 950.622864,1200.280029 
	C922.449951,1208.300171 894.253906,1216.239746 866.092834,1224.301392 
	C860.775696,1225.823608 855.583435,1227.781860 850.713379,1229.411743 
	C850.542297,1231.652588 850.250305,1232.674927 850.423462,1233.611328 
	C857.419373,1271.433105 873.169678,1305.212280 898.071777,1334.497681 
	C908.199219,1346.407715 919.447510,1357.358154 930.017822,1368.899048 
	C972.124329,1414.871826 989.548767,1467.720581 972.589783,1529.118286 
	C962.932739,1564.079956 951.399658,1598.521729 940.851685,1633.240234 
	C937.953674,1642.779053 934.796692,1652.338135 933.090881,1662.120239 
	C929.186951,1684.507690 935.711975,1703.314453 953.346497,1718.400513 
	C992.278320,1751.706543 1045.201538,1749.809082 1081.543945,1713.507812 
	C1092.245483,1702.818359 1097.400269,1689.900635 1097.997437,1674.989014 
	C1098.596436,1660.033081 1094.407959,1646.147827 1089.230957,1632.271851 
	C1079.461548,1606.086304 1069.767700,1579.837891 1061.276123,1553.222046 
	C1055.007935,1533.574951 1050.299072,1513.336426 1050.135010,1492.484497 
	C1049.842407,1455.310303 1061.852051,1421.890137 1082.674072,1389.823730 
M1329.912720,379.004822 
	C1361.216675,396.578461 1390.115479,417.692078 1418.340332,440.445312 
	C1434.818237,420.683441 1445.732666,399.304596 1452.119385,375.561646 
	C1452.893555,372.683289 1453.547852,369.753937 1453.984863,366.807739 
	C1454.719971,361.853912 1453.570312,358.089386 1448.778931,355.031189 
	C1437.305786,347.708344 1426.581177,339.190369 1414.975830,332.101898 
	C1393.697876,319.105347 1372.441895,305.949371 1350.353638,294.439026 
	C1329.737305,283.695740 1308.439087,273.996094 1286.739258,265.664948 
	C1260.085938,255.432022 1233.008911,246.027939 1205.562256,238.204529 
	C1169.502319,227.925995 1132.687988,221.056564 1095.207153,217.483353 
	C1069.424805,215.025406 1043.717773,211.983368 1017.797180,212.150909 
	C1003.858765,212.240997 989.896545,212.902908 975.998413,213.989883 
	C952.862061,215.799347 929.649536,217.310715 906.692444,220.537170 
	C886.044922,223.439041 865.549500,227.855316 845.246460,232.693024 
	C791.675293,245.457703 740.202576,264.314636 690.882874,288.755737 
	C671.230408,298.494812 652.019958,309.258881 633.266479,320.640869 
	C615.112671,331.658936 597.877747,344.182587 580.075134,355.793396 
	C575.453125,358.807831 574.448242,361.916290 575.671631,367.375549 
	C579.043335,382.419983 584.047546,396.809845 591.578918,410.190796 
	C596.285583,418.553162 601.580872,426.674774 607.436035,434.269104 
	C611.508118,439.550598 612.899475,439.068726 618.102051,434.907623 
	C651.443665,408.240295 687.101562,385.051453 725.119446,365.716705 
	C755.653320,350.188049 787.195312,336.764496 819.915833,326.453339 
	C835.100159,321.668304 850.595703,317.822754 866.052490,313.961029 
	C889.565430,308.086578 913.342468,303.634308 937.546387,301.648773 
	C958.687744,299.914398 979.781494,297.147186 1000.952637,296.369263 
	C1018.507996,295.724243 1036.142090,297.451691 1053.747314,297.879761 
	C1082.032227,298.567627 1109.891968,302.679993 1137.581787,308.092346 
	C1175.808838,315.564331 1213.149536,326.085480 1249.360474,340.593109 
	C1276.586182,351.500854 1303.103760,363.822723 1329.912720,379.004822 
M661.449097,995.562195 
	C633.612610,964.480713 600.468872,939.908386 565.268494,918.028687 
	C546.212891,906.184265 525.566345,897.646912 503.500366,893.008911 
	C494.729034,891.165283 485.900574,889.080811 476.827148,891.448730 
	C466.141907,894.237305 461.035828,901.318359 462.988678,912.184509 
	C464.277130,919.353699 466.026794,926.603333 468.792114,933.313232 
	C477.290802,953.935242 486.435394,974.289917 495.225677,994.792847 
	C522.490234,1058.386108 565.521057,1109.677002 619.460754,1152.018799 
	C654.043335,1179.165649 689.604675,1205.072632 724.949707,1231.235107 
	C731.855957,1236.347168 739.666504,1240.301758 747.299438,1244.337402 
	C750.458313,1246.007568 754.190552,1247.001343 757.762085,1247.394775 
	C764.417786,1248.127808 767.808960,1244.597412 767.253296,1237.900269 
	C766.979248,1234.597534 766.391968,1231.258667 765.451172,1228.082886 
	C755.805542,1195.525269 746.873718,1162.726074 736.149353,1130.525024 
	C719.813354,1081.475098 696.746338,1035.865479 661.449097,995.562195 
M1344.386719,1203.341553 
	C1367.007568,1185.785400 1389.726807,1168.354004 1412.227173,1150.644775 
	C1448.802246,1121.857666 1481.372925,1089.230225 1507.929932,1050.780396 
	C1535.375488,1011.044189 1555.513550,968.437866 1561.045044,919.843445 
	C1562.094971,910.620117 1562.719238,901.443848 1561.336304,891.971008 
	C1558.557129,891.841248 1556.601562,891.563416 1554.671753,891.687439 
	C1517.662354,894.064819 1483.406494,904.520874 1453.057617,926.413574 
	C1450.359009,928.360291 1447.584595,930.207092 1444.789795,932.014343 
	C1388.500244,968.414062 1346.626953,1017.345398 1318.119385,1077.857788 
	C1296.879883,1122.942505 1282.126709,1170.181763 1271.977661,1218.885254 
	C1269.971802,1228.510742 1267.145996,1238.171509 1268.276733,1249.344849 
	C1272.029663,1248.264282 1275.327759,1247.818359 1278.145508,1246.410767 
	C1287.347290,1241.813599 1296.841064,1237.566528 1305.359741,1231.890015 
	C1318.366089,1223.223389 1330.652588,1213.476196 1344.386719,1203.341553 
M1130.474365,1559.519653 
	C1134.607544,1553.476562 1138.938599,1547.558228 1142.839722,1541.368774 
	C1159.484375,1514.962036 1170.341675,1485.953369 1179.723511,1456.436279 
	C1183.956909,1443.117065 1190.071411,1432.506348 1202.765259,1425.457642 
	C1216.394043,1417.890015 1224.974731,1405.708740 1229.275269,1390.584595 
	C1235.898560,1367.292236 1237.940186,1343.505371 1237.195435,1319.410889 
	C1237.138916,1317.580322 1236.307739,1315.773804 1235.644653,1313.215576 
	C1213.538208,1320.529297 1193.852661,1330.593018 1178.602295,1347.613770 
	C1155.981445,1372.861206 1141.761475,1401.757812 1146.120850,1436.618774 
	C1148.602173,1456.461182 1145.576172,1475.139648 1139.071289,1493.496216 
	C1129.402710,1520.780884 1119.183838,1547.870361 1109.257080,1575.064209 
	C1107.994995,1578.521729 1107.082886,1582.107056 1106.008667,1585.633179 
	C1106.686646,1585.960815 1107.364624,1586.288574 1108.042725,1586.616211 
	C1115.234131,1577.963867 1122.425537,1569.311401 1130.474365,1559.519653 
z"/>
<path fill="#B8E1DD" opacity="1.000000" stroke="none" 
	d="
M1604.655273,677.339722 
	C1578.694702,620.264832 1543.851929,569.817078 1503.366211,522.028137 
	C1519.757690,496.148102 1534.336060,469.741638 1544.477905,439.948486 
	C1547.715820,442.983826 1550.176025,445.114227 1552.438477,447.437225 
	C1584.095825,479.942688 1611.387695,515.862305 1636.079102,553.864197 
	C1655.327515,583.488953 1672.886597,614.097107 1687.793945,646.070312 
	C1706.779175,686.789612 1723.087158,728.677673 1734.776489,772.103088 
	C1742.956421,802.490845 1750.455688,833.139221 1754.170288,864.504944 
	C1756.352173,882.929565 1758.509155,901.369995 1760.025635,919.856689 
	C1761.246704,934.742676 1761.416138,949.712708 1762.198120,964.637817 
	C1762.579712,971.918945 1764.428101,979.305969 1763.653442,986.432068 
	C1760.926392,1011.517761 1761.437622,1036.746704 1758.667114,1061.897095 
	C1754.040283,1103.897095 1746.686157,1145.257568 1735.865601,1185.983521 
	C1726.983887,1219.411865 1715.874268,1252.161255 1702.147827,1283.988037 
	C1683.934204,1326.219116 1662.539551,1366.804199 1637.039917,1405.005859 
	C1621.576538,1428.171875 1604.531738,1450.399170 1586.819702,1471.913940 
	C1569.518555,1492.929443 1551.296265,1513.342041 1531.955811,1532.480835 
	C1511.683716,1552.541504 1490.096313,1571.293213 1467.279663,1588.618286 
	C1440.502563,1608.950928 1413.080811,1628.211548 1384.079956,1645.245605 
	C1349.934937,1665.301025 1314.985352,1683.821411 1277.828857,1697.584839 
	C1250.739380,1707.619263 1223.335205,1717.085205 1195.507202,1724.759277 
	C1171.604126,1731.351074 1146.935059,1735.215942 1122.538086,1739.942749 
	C1111.857178,1742.012207 1101.010376,1743.224854 1089.418823,1744.948608 
	C1089.980957,1739.512085 1093.423340,1737.692871 1095.812744,1735.366211 
	C1104.200317,1727.200073 1112.223633,1718.844849 1117.092896,1707.924316 
	C1121.341797,1698.395386 1124.468262,1688.630127 1124.023682,1678.087036 
	C1123.464233,1664.822388 1122.624634,1651.569824 1121.928345,1638.310791 
	C1121.314209,1626.616943 1124.852905,1615.952759 1130.725952,1606.118896 
	C1139.927734,1590.711426 1149.194824,1575.323364 1159.041382,1560.325684 
	C1173.185181,1538.782471 1185.152466,1516.280029 1192.426270,1491.442993 
	C1193.264282,1488.581787 1194.474731,1485.819824 1195.662231,1483.076660 
	C1196.031006,1482.224487 1196.894653,1481.586548 1198.617798,1479.596191 
	C1199.865112,1485.177979 1201.507446,1489.707764 1201.803345,1494.323730 
	C1203.337646,1518.269897 1207.717896,1541.704346 1214.182739,1564.745483 
	C1218.230103,1579.170898 1224.568481,1592.642090 1232.832520,1606.131836 
	C1240.357910,1603.156616 1247.481934,1600.595581 1254.398926,1597.562500 
	C1289.759399,1582.056396 1324.185913,1564.818237 1356.936157,1544.203125 
	C1384.573975,1526.806152 1411.107056,1507.906006 1435.007324,1485.769165 
	C1458.163818,1464.321411 1480.124390,1441.555420 1502.144653,1418.915527 
	C1523.297729,1397.167236 1540.730591,1372.407837 1557.645752,1347.327759 
	C1579.630249,1314.730835 1598.644043,1280.383789 1614.419067,1244.433960 
	C1632.334839,1203.605103 1646.839966,1161.520630 1656.093018,1117.751099 
	C1661.443604,1092.440308 1665.708984,1067.047485 1668.429077,1041.257568 
	C1671.543823,1011.726379 1672.832031,982.211487 1671.753906,952.652100 
	C1670.933594,930.158081 1668.198242,907.732056 1666.245239,885.281799 
	C1662.802979,845.710510 1652.826660,807.458679 1641.233032,769.725159 
	C1634.029419,746.279846 1624.202026,723.630493 1615.287476,700.726990 
	C1612.276245,692.990906 1608.451416,685.571655 1604.655273,677.339722 
z"/>
<path fill="#15A59B" opacity="1.000000" stroke="none" 
	d="
M1375.889893,122.142723 
	C1379.056396,123.709000 1382.618896,124.774162 1385.329834,126.916840 
	C1424.945312,158.227310 1457.579468,195.699188 1484.060059,238.673477 
	C1501.984985,267.763336 1516.663330,298.095276 1524.744751,331.561279 
	C1535.581421,376.437164 1531.195679,419.653992 1511.362305,461.033508 
	C1493.331299,498.652588 1471.069092,533.906799 1447.122803,567.999146 
	C1410.518188,620.113098 1375.505737,673.217285 1346.336548,729.889343 
	C1323.780029,773.713745 1303.708252,818.707336 1285.965942,864.744507 
	C1254.610352,946.104492 1232.645020,1030.046875 1216.052734,1115.498901 
	C1212.435547,1134.127441 1208.994751,1152.794556 1205.806519,1171.500854 
	C1203.489990,1185.093018 1195.290161,1193.294678 1182.335083,1195.415405 
	C1151.267212,1200.501221 1121.335327,1197.662476 1093.682861,1180.661865 
	C1081.278320,1173.035767 1075.799927,1163.172485 1077.179565,1148.326660 
	C1083.754395,1077.575562 1093.837280,1007.481079 1113.825684,939.093506 
	C1138.224731,855.615295 1173.753174,777.339294 1225.099976,706.928467 
	C1244.884766,679.798157 1267.181396,654.465881 1288.852051,628.751404 
	C1337.796753,570.674011 1387.130615,512.924744 1436.160400,454.918915 
	C1450.909546,437.469482 1461.697754,417.685211 1469.885254,396.325378 
	C1480.368286,368.976440 1481.511475,341.297424 1475.240967,312.888428 
	C1470.095337,289.575043 1461.695679,267.522339 1449.831177,246.955811 
	C1431.531006,215.233093 1412.502686,183.930084 1393.739868,152.474854 
	C1387.940430,142.752335 1382.000732,133.113495 1376.033936,122.754623 
	C1375.942505,122.072914 1375.889893,122.142738 1375.889893,122.142723 
z"/>
<path fill="#B7E0DC" opacity="1.000000" stroke="none" 
	d="
M398.077240,1411.998779 
	C389.078461,1398.039795 379.491241,1384.418823 371.226288,1370.038208 
	C360.301636,1351.029419 349.796234,1331.723267 340.260864,1311.989136 
	C331.590973,1294.046265 323.512115,1275.695068 316.877014,1256.921387 
	C307.473663,1230.315186 298.584473,1203.431641 291.425995,1176.154907 
	C284.450623,1149.575806 279.358978,1122.453735 274.553009,1095.372681 
	C271.838043,1080.073853 271.488831,1064.364258 269.854858,1048.862793 
	C266.959991,1021.398254 265.161926,993.837463 266.273071,966.266968 
	C267.247070,942.099365 269.908813,918.000549 271.793304,893.868835 
	C274.798950,855.381348 282.144562,817.629089 292.084595,780.425110 
	C302.309357,742.155334 315.246033,704.784546 331.559692,668.600647 
	C347.587372,633.051086 364.945587,598.190308 385.673645,565.162537 
	C396.787720,547.453552 409.054352,530.427429 421.477478,513.592407 
	C432.705963,498.376373 444.329529,483.379669 456.776978,469.159943 
	C465.478790,459.219116 475.862152,450.750214 486.226929,440.929840 
	C487.784668,445.083893 489.451508,449.584778 491.158112,454.070526 
	C499.015625,474.723846 510.500061,493.447235 522.117249,512.092529 
	C527.139954,520.153809 527.271179,520.157043 521.583069,527.594055 
	C506.454956,547.373413 490.642548,566.664490 476.254425,586.966248 
	C455.236603,616.622437 437.855621,648.501648 422.376495,681.373230 
	C396.612762,736.085327 378.157104,793.184875 368.004028,852.819458 
	C364.504578,873.373657 362.419189,894.174133 359.890808,914.886841 
	C355.798157,948.414124 356.951477,982.156494 358.532043,1015.658264 
	C360.820038,1064.154541 369.994843,1111.731323 384.209625,1158.285645 
	C391.687256,1182.775391 399.328583,1207.148438 409.231354,1230.815430 
	C422.622101,1262.818481 437.942963,1293.835327 456.380829,1323.181519 
	C467.680725,1341.166870 481.036682,1357.858276 492.379303,1375.819214 
	C516.965271,1414.750732 550.511230,1445.620728 582.965149,1477.393188 
	C595.162903,1489.335083 609.690613,1498.906128 623.222656,1509.472778 
	C633.118530,1517.200562 643.064819,1524.866577 653.113220,1532.393799 
	C656.285645,1534.770264 659.861267,1536.608521 663.704529,1539.926758 
	C666.104492,1544.107056 668.052246,1547.053589 669.215210,1549.998779 
	C660.626648,1548.321411 653.419006,1545.440186 647.189636,1540.240234 
	C640.629028,1534.763672 634.051758,1529.273315 627.125610,1524.283325 
	C623.762695,1521.860718 619.327698,1520.964478 615.828308,1518.685791 
	C605.833069,1512.177002 596.086182,1505.368530 583.300781,1505.898682 
	C581.072266,1505.990845 578.812683,1504.622192 576.541077,1504.521118 
	C570.047302,1504.232666 566.772461,1500.492310 566.138489,1494.565796 
	C565.280090,1486.541870 560.845276,1482.112915 553.416504,1480.000732 
	C552.268127,1479.674316 551.288818,1478.753052 549.539368,1477.684082 
	C552.521301,1471.773560 553.217590,1466.166748 548.544678,1460.883423 
	C544.229736,1456.005005 540.480957,1450.628052 536.216370,1445.701416 
	C534.991394,1444.286255 532.953186,1443.235474 531.098145,1442.763916 
	C522.829407,1440.661743 514.491882,1438.830078 503.747803,1436.336182 
	C499.230927,1428.782349 493.615448,1419.391113 487.998169,1409.194458 
	C486.520142,1400.232544 486.520142,1400.232544 475.891846,1399.313721 
	C471.526978,1392.302368 464.038147,1387.831543 465.156982,1379.129883 
	C461.098541,1377.964233 457.786316,1377.012817 454.585846,1376.093506 
	C456.995697,1363.040039 456.995697,1363.040039 465.226166,1362.487183 
	C467.526459,1355.987671 463.028473,1354.530273 458.334717,1353.133179 
	C453.756714,1351.770386 448.339569,1351.954468 447.175415,1345.194092 
	C446.669495,1342.255981 443.558441,1341.837402 440.585236,1342.699951 
	C438.851837,1343.202759 436.958954,1343.155884 435.016479,1343.369629 
	C434.179871,1339.385864 433.479858,1336.052368 432.400146,1330.910767 
	C428.300873,1335.582642 425.423279,1338.862061 421.027496,1343.871826 
	C421.450195,1337.024414 422.057587,1332.833984 421.883392,1328.676270 
	C421.625397,1322.518677 418.953094,1319.019409 414.640930,1318.122314 
	C408.246948,1316.792114 404.189758,1318.119507 401.351379,1323.608032 
	C399.122437,1327.918091 396.432434,1330.453247 391.383942,1330.221069 
	C390.343048,1330.173340 389.248138,1331.300293 386.927795,1332.569824 
	C390.890198,1337.355591 394.338898,1341.520752 397.808807,1345.711548 
	C394.873627,1349.955566 392.220642,1353.791504 390.342743,1356.506714 
	C397.669647,1362.686035 404.016785,1367.630859 409.769562,1373.190796 
	C411.127380,1374.503052 411.423096,1378.361328 410.499084,1380.180664 
	C409.575073,1382.000000 406.615845,1383.406860 404.356598,1383.757935 
	C401.938354,1384.133667 399.295776,1383.066162 396.904907,1382.655029 
	C391.421814,1393.059937 392.878693,1396.153320 403.714355,1398.046143 
	C409.260193,1399.014893 410.075928,1400.270996 408.912567,1406.141479 
	C408.655792,1407.437012 408.306641,1408.714355 407.504944,1410.555542 
	C404.032288,1411.406982 401.054779,1411.702881 398.077240,1411.998779 
z"/>
<path fill="#15A39B" opacity="1.000000" stroke="none" 
	d="
M1082.261597,1390.417236 
	C1061.852051,1421.890137 1049.842407,1455.310303 1050.135010,1492.484497 
	C1050.299072,1513.336426 1055.007935,1533.574951 1061.276123,1553.222046 
	C1069.767700,1579.837891 1079.461548,1606.086304 1089.230957,1632.271851 
	C1094.407959,1646.147827 1098.596436,1660.033081 1097.997437,1674.989014 
	C1097.400269,1689.900635 1092.245483,1702.818359 1081.543945,1713.507812 
	C1045.201538,1749.809082 992.278320,1751.706543 953.346497,1718.400513 
	C935.711975,1703.314453 929.186951,1684.507690 933.090881,1662.120239 
	C934.796692,1652.338135 937.953674,1642.779053 940.851685,1633.240234 
	C951.399658,1598.521729 962.932739,1564.079956 972.589783,1529.118286 
	C989.548767,1467.720581 972.124329,1414.871826 930.017822,1368.899048 
	C919.447510,1357.358154 908.199219,1346.407715 898.071777,1334.497681 
	C873.169678,1305.212280 857.419373,1271.433105 850.423462,1233.611328 
	C850.250305,1232.674927 850.542297,1231.652588 850.713379,1229.411743 
	C855.583435,1227.781860 860.775696,1225.823608 866.092834,1224.301392 
	C894.253906,1216.239746 922.449951,1208.300171 950.622864,1200.280029 
	C953.823181,1199.368896 957.273376,1198.749146 960.059998,1197.079956 
	C969.030823,1191.706665 976.087158,1194.586914 983.378967,1200.752930 
	C993.268921,1209.115723 1003.754150,1216.774292 1014.588867,1225.205688 
	C1024.057739,1217.558838 1033.217529,1209.981567 1042.568848,1202.648804 
	C1060.016235,1188.967651 1053.333496,1189.817383 1075.269653,1196.455688 
	C1109.372681,1206.775879 1143.430054,1217.248047 1177.495850,1227.691040 
	C1180.303833,1228.551880 1183.029297,1229.681885 1185.525391,1230.589478 
	C1185.637695,1231.533813 1185.812500,1231.921509 1185.695557,1232.173950 
	C1169.763062,1266.580322 1155.476562,1301.905151 1132.188965,1332.329346 
	C1124.922607,1341.822754 1116.400757,1350.348877 1108.569458,1359.417847 
	C1099.868652,1369.493530 1091.300171,1379.683594 1082.261597,1390.417236 
M1027.340210,1627.794189 
	C1010.677612,1626.537598 994.125061,1627.005615 977.919922,1631.523193 
	C968.197998,1634.233398 965.654907,1639.636230 969.921753,1648.697510 
	C971.294983,1651.613892 973.503967,1654.277100 975.800232,1656.589844 
	C980.948303,1661.775269 986.122437,1666.995972 991.765808,1671.616211 
	C1006.771667,1683.902100 1010.772888,1699.740967 1007.694336,1718.124512 
	C1007.160339,1721.313477 1006.809692,1724.533203 1006.241089,1728.719604 
	C1012.296204,1728.719604 1017.320923,1728.719604 1023.244934,1728.719604 
	C1022.745911,1722.483765 1022.429016,1716.944580 1021.838257,1711.434814 
	C1020.017639,1694.453247 1026.063110,1680.937744 1039.289185,1670.285767 
	C1044.455933,1666.124878 1049.365967,1661.591431 1054.001221,1656.844971 
	C1056.738892,1654.041748 1059.299194,1650.757080 1060.903442,1647.219116 
	C1064.288330,1639.753906 1061.671753,1634.036743 1053.619629,1632.067017 
	C1045.596924,1630.104736 1037.304688,1629.244263 1027.340210,1627.794189 
z"/>
<path fill="#B7E0DC" opacity="1.000000" stroke="none" 
	d="
M1329.260986,378.656799 
	C1303.103760,363.822723 1276.586182,351.500854 1249.360474,340.593109 
	C1213.149536,326.085480 1175.808838,315.564331 1137.581787,308.092346 
	C1109.891968,302.679993 1082.032227,298.567627 1053.747314,297.879761 
	C1036.142090,297.451691 1018.507996,295.724243 1000.952637,296.369263 
	C979.781494,297.147186 958.687744,299.914398 937.546387,301.648773 
	C913.342468,303.634308 889.565430,308.086578 866.052490,313.961029 
	C850.595703,317.822754 835.100159,321.668304 819.915833,326.453339 
	C787.195312,336.764496 755.653320,350.188049 725.119446,365.716705 
	C687.101562,385.051453 651.443665,408.240295 618.102051,434.907623 
	C612.899475,439.068726 611.508118,439.550598 607.436035,434.269104 
	C601.580872,426.674774 596.285583,418.553162 591.578918,410.190796 
	C584.047546,396.809845 579.043335,382.419983 575.671631,367.375549 
	C574.448242,361.916290 575.453125,358.807831 580.075134,355.793396 
	C597.877747,344.182587 615.112671,331.658936 633.266479,320.640869 
	C652.019958,309.258881 671.230408,298.494812 690.882874,288.755737 
	C740.202576,264.314636 791.675293,245.457703 845.246460,232.693024 
	C865.549500,227.855316 886.044922,223.439041 906.692444,220.537170 
	C929.649536,217.310715 952.862061,215.799347 975.998413,213.989883 
	C989.896545,212.902908 1003.858765,212.240997 1017.797180,212.150909 
	C1043.717773,211.983368 1069.424805,215.025406 1095.207153,217.483353 
	C1132.687988,221.056564 1169.502319,227.925995 1205.562256,238.204529 
	C1233.008911,246.027939 1260.085938,255.432022 1286.739258,265.664948 
	C1308.439087,273.996094 1329.737305,283.695740 1350.353638,294.439026 
	C1372.441895,305.949371 1393.697876,319.105347 1414.975830,332.101898 
	C1426.581177,339.190369 1437.305786,347.708344 1448.778931,355.031189 
	C1453.570312,358.089386 1454.719971,361.853912 1453.984863,366.807739 
	C1453.547852,369.753937 1452.893555,372.683289 1452.119385,375.561646 
	C1445.732666,399.304596 1434.818237,420.683441 1418.340332,440.445312 
	C1390.115479,417.692078 1361.216675,396.578461 1329.260986,378.656799 
z"/>
<path fill="#15A49B" opacity="1.000000" stroke="none" 
	d="
M661.936768,996.074646 
	C696.746338,1035.865479 719.813354,1081.475098 736.149353,1130.525024 
	C746.873718,1162.726074 755.805542,1195.525269 765.451172,1228.082886 
	C766.391968,1231.258667 766.979248,1234.597534 767.253296,1237.900269 
	C767.808960,1244.597412 764.417786,1248.127808 757.762085,1247.394775 
	C754.190552,1247.001343 750.458313,1246.007568 747.299438,1244.337402 
	C739.666504,1240.301758 731.855957,1236.347168 724.949707,1231.235107 
	C689.604675,1205.072632 654.043335,1179.165649 619.460754,1152.018799 
	C565.521057,1109.677002 522.490234,1058.386108 495.225677,994.792847 
	C486.435394,974.289917 477.290802,953.935242 468.792114,933.313232 
	C466.026794,926.603333 464.277130,919.353699 462.988678,912.184509 
	C461.035828,901.318359 466.141907,894.237305 476.827148,891.448730 
	C485.900574,889.080811 494.729034,891.165283 503.500366,893.008911 
	C525.566345,897.646912 546.212891,906.184265 565.268494,918.028687 
	C600.468872,939.908386 633.612610,964.480713 661.936768,996.074646 
z"/>
<path fill="#14A39A" opacity="1.000000" stroke="none" 
	d="
M1343.815674,1203.764648 
	C1330.652588,1213.476196 1318.366089,1223.223389 1305.359741,1231.890015 
	C1296.841064,1237.566528 1287.347290,1241.813599 1278.145508,1246.410767 
	C1275.327759,1247.818359 1272.029663,1248.264282 1268.276733,1249.344849 
	C1267.145996,1238.171509 1269.971802,1228.510742 1271.977661,1218.885254 
	C1282.126709,1170.181763 1296.879883,1122.942505 1318.119385,1077.857788 
	C1346.626953,1017.345398 1388.500244,968.414062 1444.789795,932.014343 
	C1447.584595,930.207092 1450.359009,928.360291 1453.057617,926.413574 
	C1483.406494,904.520874 1517.662354,894.064819 1554.671753,891.687439 
	C1556.601562,891.563416 1558.557129,891.841248 1561.336304,891.971008 
	C1562.719238,901.443848 1562.094971,910.620117 1561.045044,919.843445 
	C1555.513550,968.437866 1535.375488,1011.044189 1507.929932,1050.780396 
	C1481.372925,1089.230225 1448.802246,1121.857666 1412.227173,1150.644775 
	C1389.726807,1168.354004 1367.007568,1185.785400 1343.815674,1203.764648 
z"/>
<path fill="#B9E1DD" opacity="1.000000" stroke="none" 
	d="
M670.000000,1550.000000 
	C668.052246,1547.053589 666.104492,1544.107056 664.132324,1540.447998 
	C677.068787,1547.149902 689.960571,1554.688232 703.004639,1561.953125 
	C730.909973,1577.494873 759.448608,1591.713989 789.708130,1602.176392 
	C800.072632,1605.760132 800.628723,1605.386475 805.466797,1595.048828 
	C813.702698,1577.451294 818.619751,1558.817505 821.807495,1539.774414 
	C825.139221,1519.871094 827.705994,1499.839600 830.684631,1479.331055 
	C834.841431,1480.872559 835.188965,1484.687012 836.178833,1487.874268 
	C841.823975,1506.050293 848.665283,1523.786011 858.287048,1540.195801 
	C868.358215,1557.372070 879.512146,1573.909790 889.919983,1590.893799 
	C894.952759,1599.106689 899.397034,1607.682251 904.041748,1616.130005 
	C909.127686,1625.380493 908.401611,1635.470581 907.875000,1645.435303 
	C907.543274,1651.711426 906.539673,1657.953125 905.812439,1664.207275 
	C902.343262,1694.038696 913.135986,1717.997192 935.734436,1737.150391 
	C937.640076,1738.765625 939.180664,1740.811401 942.642212,1744.547119 
	C932.726013,1743.483765 925.230652,1743.036621 917.859802,1741.829102 
	C881.823669,1735.926147 846.119080,1728.561523 811.054749,1718.160522 
	C776.855225,1708.015747 743.851074,1694.949219 711.492249,1679.994141 
	C684.277222,1667.416504 658.045898,1653.136475 632.567261,1636.044922 
	C635.015442,1624.589355 634.467957,1624.727539 625.808594,1620.702393 
	C616.943665,1616.581787 607.462585,1612.359619 600.589111,1605.750488 
	C592.385132,1597.862061 583.243225,1592.742798 573.105286,1588.517212 
	C570.814819,1587.562378 568.599060,1585.917358 566.931763,1584.065308 
	C558.845703,1575.083862 550.947693,1565.932739 543.049438,1556.784302 
	C542.806580,1556.503174 543.290344,1555.594727 543.685913,1553.914429 
	C550.573914,1554.258545 557.673645,1554.613159 566.252991,1555.041748 
	C564.246643,1548.647583 561.273438,1543.485229 557.161621,1538.970947 
	C556.511658,1538.257446 554.459290,1538.122803 553.423462,1538.571045 
	C545.708923,1541.909424 540.122009,1539.623413 535.627441,1532.795044 
	C534.227783,1530.668579 531.484741,1529.472046 529.708984,1527.527954 
	C528.829163,1526.564697 528.748657,1524.871338 528.306519,1523.508301 
	C528.781067,1522.988037 529.255554,1522.467896 529.730103,1521.947632 
	C535.007385,1524.916626 540.284668,1527.885498 546.049438,1531.128784 
	C555.020264,1530.255615 564.792603,1529.423950 571.786011,1521.284546 
	C569.824219,1517.948608 567.980835,1514.814209 565.029053,1509.794800 
	C572.658936,1511.476929 577.812500,1512.613037 583.611328,1513.891479 
	C581.793579,1515.307373 580.157104,1516.582153 578.533691,1517.846680 
	C580.206116,1522.695557 583.597229,1524.024780 587.956116,1524.099731 
	C592.044373,1524.169922 593.575684,1526.647949 594.026062,1530.534912 
	C594.665710,1536.054932 595.785461,1541.519287 596.666809,1546.808105 
	C608.198059,1548.139038 607.867615,1539.604370 609.039490,1532.634277 
	C611.489075,1532.318237 613.460999,1532.139893 615.404663,1531.799805 
	C623.306396,1530.416626 629.756897,1533.382568 631.655884,1540.631470 
	C634.213379,1550.393921 640.513733,1553.929688 649.853821,1554.064819 
	C652.128174,1554.097534 654.394043,1555.206665 656.660400,1555.194336 
	C661.697815,1555.166626 667.301636,1556.182373 670.000000,1550.000000 
z"/>
<path fill="#B8E1DD" opacity="1.000000" stroke="none" 
	d="
M669.215210,1549.998779 
	C667.301636,1556.182373 661.697815,1555.166626 656.660400,1555.194336 
	C654.394043,1555.206665 652.128174,1554.097534 649.853821,1554.064819 
	C640.513733,1553.929688 634.213379,1550.393921 631.655884,1540.631470 
	C629.756897,1533.382568 623.306396,1530.416626 615.404663,1531.799805 
	C613.460999,1532.139893 611.489075,1532.318237 609.039490,1532.634277 
	C607.867615,1539.604370 608.198059,1548.139038 596.666809,1546.808105 
	C595.785461,1541.519287 594.665710,1536.054932 594.026062,1530.534912 
	C593.575684,1526.647949 592.044373,1524.169922 587.956116,1524.099731 
	C583.597229,1524.024780 580.206116,1522.695557 578.533691,1517.846680 
	C580.157104,1516.582153 581.793579,1515.307373 583.611328,1513.891479 
	C577.812500,1512.613037 572.658936,1511.476929 565.029053,1509.794800 
	C567.980835,1514.814209 569.824219,1517.948608 571.786011,1521.284546 
	C564.792603,1529.423950 555.020264,1530.255615 546.049438,1531.128784 
	C540.284668,1527.885498 535.007385,1524.916626 529.730103,1521.947632 
	C529.255554,1522.467896 528.781067,1522.988037 528.306519,1523.508301 
	C528.748657,1524.871338 528.829163,1526.564697 529.708984,1527.527954 
	C531.484741,1529.472046 534.227783,1530.668579 535.627441,1532.795044 
	C540.122009,1539.623413 545.708923,1541.909424 553.423462,1538.571045 
	C554.459290,1538.122803 556.511658,1538.257446 557.161621,1538.970947 
	C561.273438,1543.485229 564.246643,1548.647583 566.252991,1555.041748 
	C557.673645,1554.613159 550.573914,1554.258545 543.685913,1553.914429 
	C543.290344,1555.594727 542.806580,1556.503174 543.049438,1556.784302 
	C550.947693,1565.932739 558.845703,1575.083862 566.931763,1584.065308 
	C568.599060,1585.917358 570.814819,1587.562378 573.105286,1588.517212 
	C583.243225,1592.742798 592.385132,1597.862061 600.589111,1605.750488 
	C607.462585,1612.359619 616.943665,1616.581787 625.808594,1620.702393 
	C634.467957,1624.727539 635.015442,1624.589355 632.212708,1635.467285 
	C628.446533,1634.297119 624.797791,1632.699829 621.586853,1630.471680 
	C602.047729,1616.911743 582.431580,1603.450684 563.211609,1589.448242 
	C553.904968,1582.668091 545.403931,1574.782227 536.237671,1566.021973 
	C535.837830,1558.765869 531.377991,1560.312988 528.012939,1559.995117 
	C526.610107,1558.491699 525.207336,1556.988403 524.565918,1554.779419 
	C527.869568,1553.789062 530.411865,1553.504272 533.273560,1553.183838 
	C533.555847,1551.083862 533.856262,1549.503540 533.957947,1547.910400 
	C534.063171,1546.263062 534.101990,1544.591797 533.949585,1542.951294 
	C533.357727,1536.579834 526.615234,1531.705322 521.261414,1534.932495 
	C515.583191,1538.354858 509.957520,1537.834595 504.102234,1537.966675 
	C496.931549,1531.017578 489.760834,1524.068604 482.311462,1515.821777 
	C482.519104,1513.174194 483.005371,1511.824585 483.761505,1509.725952 
	C486.098969,1511.598877 487.439453,1513.200928 489.149445,1513.902832 
	C491.067474,1514.690430 493.896393,1515.593384 495.270660,1514.740601 
	C496.762817,1513.814941 497.430328,1510.981445 497.728394,1508.876587 
	C498.012543,1506.869751 497.357635,1504.729736 497.049713,1502.082275 
	C501.727753,1502.593384 505.435028,1502.998535 511.108429,1503.618530 
	C509.003937,1499.151733 508.041748,1496.054565 506.258057,1493.540161 
	C502.382874,1488.077515 500.677704,1488.089233 493.986328,1490.538818 
	C491.030640,1491.620728 487.170044,1492.513184 484.463104,1491.502319 
	C479.309509,1489.577759 474.768372,1490.649292 469.710083,1491.400635 
	C464.841522,1486.051147 459.987823,1481.532104 455.753296,1476.492920 
	C450.387146,1470.106689 450.997864,1466.800659 457.473267,1461.030884 
	C458.353424,1460.246582 458.851562,1459.033569 459.610596,1457.892822 
	C454.458038,1453.708008 450.982117,1461.086548 445.270355,1458.314941 
	C444.473816,1455.584351 442.681366,1451.938599 442.656708,1448.281006 
	C442.644775,1446.503174 446.006744,1444.765259 447.721283,1442.898926 
	C450.568695,1439.799438 451.242859,1437.132690 445.988831,1435.238892 
	C443.403748,1427.614746 442.222870,1419.604370 431.524139,1418.919312 
	C432.494019,1415.425171 433.247009,1412.712646 434.570557,1409.933228 
	C435.754669,1409.017700 436.368164,1408.168823 436.981598,1407.319824 
	C435.987701,1407.546509 434.993835,1407.773193 433.197296,1407.998413 
	C426.039520,1406.744141 419.793427,1405.682617 413.759338,1409.598389 
	C412.347382,1410.514771 409.946106,1409.906738 408.000031,1410.000000 
	C408.306641,1408.714355 408.655792,1407.437012 408.912567,1406.141479 
	C410.075928,1400.270996 409.260193,1399.014893 403.714355,1398.046143 
	C392.878693,1396.153320 391.421814,1393.059937 396.904907,1382.655029 
	C399.295776,1383.066162 401.938354,1384.133667 404.356598,1383.757935 
	C406.615845,1383.406860 409.575073,1382.000000 410.499084,1380.180664 
	C411.423096,1378.361328 411.127380,1374.503052 409.769562,1373.190796 
	C404.016785,1367.630859 397.669647,1362.686035 390.342743,1356.506714 
	C392.220642,1353.791504 394.873627,1349.955566 397.808807,1345.711548 
	C394.338898,1341.520752 390.890198,1337.355591 386.927795,1332.569824 
	C389.248138,1331.300293 390.343048,1330.173340 391.383942,1330.221069 
	C396.432434,1330.453247 399.122437,1327.918091 401.351379,1323.608032 
	C404.189758,1318.119507 408.246948,1316.792114 414.640930,1318.122314 
	C418.953094,1319.019409 421.625397,1322.518677 421.883392,1328.676270 
	C422.057587,1332.833984 421.450195,1337.024414 421.027496,1343.871826 
	C425.423279,1338.862061 428.300873,1335.582642 432.400146,1330.910767 
	C433.479858,1336.052368 434.179871,1339.385864 435.016479,1343.369629 
	C436.958954,1343.155884 438.851837,1343.202759 440.585236,1342.699951 
	C443.558441,1341.837402 446.669495,1342.255981 447.175415,1345.194092 
	C448.339569,1351.954468 453.756714,1351.770386 458.334717,1353.133179 
	C463.028473,1354.530273 467.526459,1355.987671 465.226166,1362.487183 
	C456.995697,1363.040039 456.995697,1363.040039 454.585846,1376.093506 
	C457.786316,1377.012817 461.098541,1377.964233 465.156982,1379.129883 
	C464.038147,1387.831543 471.526978,1392.302368 475.484802,1399.882324 
	C473.512238,1403.500732 471.281281,1405.647217 470.261261,1408.265625 
	C465.841461,1419.610474 466.848633,1428.674438 483.669067,1425.539551 
	C484.223877,1425.436279 484.673004,1424.765991 485.767303,1423.874512 
	C486.566284,1419.656860 482.224457,1413.828247 488.000000,1410.000000 
	C493.615448,1419.391113 499.230927,1428.782349 503.747803,1436.336182 
	C514.491882,1438.830078 522.829407,1440.661743 531.098145,1442.763916 
	C532.953186,1443.235474 534.991394,1444.286255 536.216370,1445.701416 
	C540.480957,1450.628052 544.229736,1456.005005 548.544678,1460.883423 
	C553.217590,1466.166748 552.521301,1471.773560 549.539368,1477.684082 
	C551.288818,1478.753052 552.268127,1479.674316 553.416504,1480.000732 
	C560.845276,1482.112915 565.280090,1486.541870 566.138489,1494.565796 
	C566.772461,1500.492310 570.047302,1504.232666 576.541077,1504.521118 
	C578.812683,1504.622192 581.072266,1505.990845 583.300781,1505.898682 
	C596.086182,1505.368530 605.833069,1512.177002 615.828308,1518.685791 
	C619.327698,1520.964478 623.762695,1521.860718 627.125610,1524.283325 
	C634.051758,1529.273315 640.629028,1534.763672 647.189636,1540.240234 
	C653.419006,1545.440186 660.626648,1548.321411 669.215210,1549.998779 
M508.510559,1527.732666 
	C512.135925,1527.634766 516.087952,1529.253906 519.448792,1526.086914 
	C513.434204,1520.487549 511.744171,1520.665405 508.510559,1527.732666 
M423.817413,1356.807007 
	C424.015381,1355.504272 424.213318,1354.201416 424.411316,1352.898682 
	C423.336029,1353.345337 422.260712,1353.791870 421.185425,1354.238525 
	C421.711212,1355.275146 422.237000,1356.311646 423.817413,1356.807007 
M452.918640,1416.575317 
	C454.073883,1416.799072 455.229126,1417.022949 456.384369,1417.246826 
	C456.394592,1416.426758 456.404846,1415.606567 456.415039,1414.786377 
	C455.254395,1414.981812 454.093750,1415.177246 452.918640,1416.575317 
M517.408630,1509.133545 
	C517.978577,1508.589600 518.548462,1508.045532 519.118408,1507.501587 
	C518.892883,1507.265747 518.483582,1506.812256 518.468201,1506.825195 
	C517.867188,1507.333008 517.302002,1507.883179 517.408630,1509.133545 
M548.866272,1521.408569 
	C549.410278,1521.978516 549.954285,1522.548584 550.498230,1523.118530 
	C550.734070,1522.892944 551.187500,1522.483521 551.174438,1522.468018 
	C550.666748,1521.867065 550.116516,1521.301880 548.866272,1521.408569 
z"/>
<path fill="#1AA39B" opacity="1.000000" stroke="none" 
	d="
M1130.045654,1560.089355 
	C1122.425537,1569.311401 1115.234131,1577.963867 1108.042725,1586.616211 
	C1107.364624,1586.288574 1106.686646,1585.960815 1106.008667,1585.633179 
	C1107.082886,1582.107056 1107.994995,1578.521729 1109.257080,1575.064209 
	C1119.183838,1547.870361 1129.402710,1520.780884 1139.071289,1493.496216 
	C1145.576172,1475.139648 1148.602173,1456.461182 1146.120850,1436.618774 
	C1141.761475,1401.757812 1155.981445,1372.861206 1178.602295,1347.613770 
	C1193.852661,1330.593018 1213.538208,1320.529297 1235.644653,1313.215576 
	C1236.307739,1315.773804 1237.138916,1317.580322 1237.195435,1319.410889 
	C1237.940186,1343.505371 1235.898560,1367.292236 1229.275269,1390.584595 
	C1224.974731,1405.708740 1216.394043,1417.890015 1202.765259,1425.457642 
	C1190.071411,1432.506348 1183.956909,1443.117065 1179.723511,1456.436279 
	C1170.341675,1485.953369 1159.484375,1514.962036 1142.839722,1541.368774 
	C1138.938599,1547.558228 1134.607544,1553.476562 1130.045654,1560.089355 
z"/>
<path fill="#19A39B" opacity="1.000000" stroke="none" 
	d="
M882.363647,1462.093872 
	C882.652466,1463.015015 882.941284,1463.936279 882.757202,1466.188354 
	C882.747925,1484.022827 889.122620,1499.057617 894.330322,1514.305908 
	C899.356262,1529.021729 905.493347,1543.354858 910.881653,1557.952271 
	C912.376770,1562.002808 912.944092,1566.395752 914.312744,1572.233887 
	C909.404236,1568.831299 906.340454,1566.707397 903.276672,1564.583496 
	C903.276672,1564.583496 903.565979,1564.184082 903.475220,1563.833008 
	C902.765747,1563.098267 902.147095,1562.714355 901.528442,1562.330566 
	C901.528442,1562.330566 901.736755,1562.266602 901.600952,1561.672119 
	C898.175232,1556.793213 894.885315,1552.508789 891.595337,1548.224365 
	C891.595337,1548.224365 891.818298,1548.189697 891.809692,1547.530029 
	C889.720825,1542.347290 887.929626,1537.662964 885.511108,1533.328613 
	C873.861572,1512.451416 863.431580,1491.027954 857.006226,1467.919922 
	C852.902771,1453.162231 845.105164,1440.573486 835.620300,1428.884277 
	C834.081604,1426.987915 831.420410,1426.002319 829.278076,1424.595703 
	C829.278076,1424.595703 829.568665,1424.182739 829.466064,1423.834839 
	C828.726990,1423.131958 828.090454,1422.776855 827.453918,1422.421875 
	C827.453918,1422.421875 827.700256,1422.270508 827.564636,1421.833496 
	C826.795959,1421.043091 826.162903,1420.689697 825.529907,1420.336182 
	C825.529907,1420.336182 825.747070,1420.237549 825.619995,1419.794434 
	C824.895325,1418.958130 824.297729,1418.564941 823.700134,1418.171875 
	C823.700134,1418.171875 823.910278,1418.123779 823.870361,1417.495605 
	C820.950745,1413.328125 818.197632,1409.675903 815.166016,1406.271851 
	C807.859253,1398.067261 801.192322,1389.497803 798.456482,1378.568604 
	C794.111877,1361.212769 792.500183,1343.514038 792.078857,1325.685303 
	C792.026184,1323.457642 792.572571,1321.215820 792.805725,1319.277222 
	C797.784363,1316.612061 801.522522,1318.981934 805.494141,1320.642700 
	C813.054993,1323.804321 820.731873,1326.688354 828.360535,1329.687744 
	C828.360535,1329.687744 828.183044,1329.810181 828.379822,1330.374023 
	C835.859314,1337.098877 843.894104,1342.573730 850.270630,1349.561768 
	C864.234863,1364.864990 875.187195,1382.338257 879.089050,1402.949097 
	C881.259949,1414.416626 883.513184,1426.017212 880.813171,1438.238647 
	C879.155945,1445.739624 877.544922,1454.452881 882.363647,1462.093872 
z"/>
<path fill="#3FA49D" opacity="1.000000" stroke="none" 
	d="
M762.871094,653.260193 
	C775.540283,668.667603 788.661499,683.728271 800.796570,699.545532 
	C842.349426,753.706787 871.915955,814.339478 896.162048,877.810547 
	C917.542114,933.778687 932.579224,991.384033 940.560913,1050.746826 
	C944.733948,1081.783447 947.458130,1113.015869 951.686890,1144.043823 
	C954.411255,1164.033813 945.701843,1176.067017 928.683716,1184.863892 
	C903.482666,1197.890625 876.882690,1199.129639 849.771057,1195.408447 
	C835.407715,1193.437012 826.863586,1183.582397 823.887817,1169.609375 
	C820.905090,1155.603394 818.851990,1141.402222 816.182617,1127.326294 
	C795.505127,1018.291504 765.592285,911.984619 721.404480,809.996094 
	C687.791687,732.415466 646.487366,659.100769 598.159851,589.694275 
	C582.751282,567.565125 568.446411,544.667480 553.685791,521.211243 
	C553.734985,520.301025 554.197815,519.849548 554.750610,520.225586 
	C565.810913,536.252380 576.342041,551.887329 586.820068,567.557739 
	C601.577026,589.627319 616.169983,611.807678 631.063293,633.784668 
	C646.875671,657.117676 661.357300,681.241211 674.691895,706.054871 
	C682.988831,721.494141 691.467407,736.861572 699.051880,752.651550 
	C709.501770,774.406982 719.387268,796.441467 729.120422,818.530151 
	C735.104187,832.110229 740.602234,845.919922 745.859802,859.800232 
	C751.032837,873.457397 755.734802,887.297058 760.449280,901.122864 
	C766.985535,920.291443 773.392578,939.504761 779.748230,958.734192 
	C782.450195,966.909241 785.265198,975.077271 787.360229,983.416504 
	C792.448181,1003.668274 797.315430,1023.979553 801.951843,1044.339722 
	C806.951172,1066.293457 811.762451,1088.293701 816.327087,1110.341675 
	C820.215332,1129.122559 823.817139,1147.968018 827.189087,1166.848389 
	C828.872498,1176.274170 833.244751,1184.655518 841.542664,1188.236816 
	C849.765015,1191.785522 859.403503,1192.418213 868.520996,1193.385864 
	C873.671753,1193.932495 879.037048,1192.050049 884.283508,1192.177979 
	C900.373352,1192.569702 915.264893,1188.425049 928.940369,1180.357544 
	C935.083679,1176.733521 942.187134,1173.498657 944.928955,1166.020142 
	C947.702332,1158.455566 948.774841,1150.598145 947.795349,1142.500732 
	C947.081055,1136.596191 946.594116,1130.663330 946.054993,1124.738525 
	C945.244385,1115.829834 944.825684,1106.869629 943.615784,1098.016479 
	C941.333191,1081.314697 938.672852,1064.663086 936.043274,1048.010620 
	C933.671692,1032.991333 931.661560,1017.886780 928.524109,1003.024170 
	C925.040100,986.519531 920.805115,970.149902 916.265137,953.898071 
	C911.187988,935.723633 905.700562,917.649292 899.817383,899.719849 
	C895.998718,888.082458 890.660828,876.942627 886.862488,865.299683 
	C877.022217,835.137085 861.960938,807.340088 847.893433,779.150024 
	C835.738892,754.793213 821.188232,731.740112 804.242249,710.295715 
	C793.557007,696.773987 783.048401,683.111023 772.594421,669.409241 
	C768.818176,664.459900 765.432129,659.212891 762.118835,653.891357 
	C762.369690,653.681091 762.871094,653.260193 762.871094,653.260193 
z"/>
<path fill="#3FA49D" opacity="1.000000" stroke="none" 
	d="
M553.509766,520.532959 
	C542.531128,502.423584 531.347961,484.317017 521.161865,465.665863 
	C513.175781,451.042969 507.142731,435.509460 503.228424,419.177246 
	C496.069977,389.309387 497.652679,359.717712 504.779877,330.101868 
	C513.161682,295.272705 529.442505,264.070251 548.375793,234.087921 
	C574.581421,192.589233 607.474487,156.989014 645.055603,125.614777 
	C648.061096,123.105675 651.676514,121.327133 655.933716,118.620941 
	C656.173950,123.014198 653.975098,125.426468 652.395264,127.956161 
	C638.986816,149.426163 625.130737,170.627487 612.164185,192.360031 
	C593.059875,224.379715 573.615784,256.212189 561.241089,291.777802 
	C543.360962,343.166534 550.043274,391.238708 581.199646,435.232300 
	C599.454590,461.008667 620.123962,485.077576 639.770081,509.864685 
	C645.144592,516.645569 650.746155,523.246399 656.269409,530.793457 
	C656.295349,531.657104 655.855713,532.113831 655.289429,531.772095 
	C646.859192,522.882385 638.692871,514.589966 631.201843,505.726807 
	C619.870239,492.319519 608.699646,478.751129 598.039551,464.808594 
	C588.394836,452.194183 578.963074,439.343872 570.460693,425.948120 
	C560.423157,410.133911 554.575500,392.456238 551.093262,374.074982 
	C547.459656,354.895050 545.040833,335.665863 550.889526,316.430298 
	C555.028137,302.819214 558.236084,288.838196 563.483582,275.669495 
	C574.187622,248.807037 588.476379,223.703232 603.863342,199.244110 
	C614.293518,182.664246 624.791260,166.126511 635.131531,149.490829 
	C637.126770,146.280975 639.568542,142.813690 636.240051,138.067123 
	C634.394592,139.405319 632.659546,140.312271 631.373047,141.650543 
	C618.010681,155.550629 604.409241,169.239044 591.493408,183.545288 
	C577.056763,199.535995 563.363831,216.094910 552.035156,234.625259 
	C534.868225,262.705292 519.097595,291.267059 510.298065,323.289581 
	C503.374725,348.484192 499.961365,373.635864 503.577515,399.910950 
	C506.931000,424.277710 515.222229,446.771851 525.871155,468.469879 
	C532.726685,482.438660 541.539551,495.440521 549.303284,508.974335 
	C551.271912,512.406006 552.584045,516.214294 554.197815,519.849548 
	C554.197815,519.849548 553.734985,520.301025 553.509766,520.532959 
z"/>
<path fill="#B9E1DD" opacity="1.000000" stroke="none" 
	d="
M434.000000,1410.000000 
	C433.247009,1412.712646 432.494019,1415.425171 431.524139,1418.919312 
	C442.222870,1419.604370 443.403748,1427.614746 445.283447,1435.316406 
	C443.120667,1437.325928 440.997131,1438.199951 440.305939,1439.723511 
	C438.188660,1444.390869 435.344238,1447.877686 430.186981,1449.310547 
	C429.199432,1449.584717 428.598846,1451.251953 427.819763,1452.276489 
	C425.229156,1449.309692 422.638580,1446.342896 420.677368,1442.579102 
	C422.114868,1439.914429 423.894409,1437.833984 423.540710,1436.221191 
	C422.642700,1432.125977 420.770721,1428.255005 416.017517,1426.481323 
	C414.587799,1427.709351 413.156921,1428.938354 411.726074,1430.167236 
	C407.353424,1424.521118 402.980774,1418.875122 398.342712,1412.613892 
	C401.054779,1411.702881 404.032288,1411.406982 407.504913,1410.555664 
	C409.946106,1409.906738 412.347382,1410.514771 413.759338,1409.598389 
	C419.793427,1405.682617 426.039520,1406.744141 433.197327,1408.498535 
	C434.000000,1409.000000 434.000000,1410.000000 434.000000,1410.000000 
z"/>
<path fill="#B7E0DC" opacity="1.000000" stroke="none" 
	d="
M427.949219,1452.942383 
	C428.598846,1451.251953 429.199432,1449.584717 430.186981,1449.310547 
	C435.344238,1447.877686 438.188660,1444.390869 440.305939,1439.723511 
	C440.997131,1438.199951 443.120667,1437.325928 445.294586,1436.077393 
	C451.242859,1437.132690 450.568695,1439.799438 447.721283,1442.898926 
	C446.006744,1444.765259 442.644775,1446.503174 442.656708,1448.281006 
	C442.681366,1451.938599 444.473816,1455.584351 445.270355,1458.314941 
	C450.982117,1461.086548 454.458038,1453.708008 459.610596,1457.892822 
	C458.851562,1459.033569 458.353424,1460.246582 457.473267,1461.030884 
	C450.997864,1466.800659 450.387146,1470.106689 455.753296,1476.492920 
	C459.987823,1481.532104 464.841522,1486.051147 469.709778,1492.147095 
	C469.271088,1495.709839 468.542786,1497.926636 467.814514,1500.143555 
	C461.271301,1493.187378 454.438507,1486.477173 448.261414,1479.209717 
	C441.228546,1470.935425 434.780762,1462.163696 427.949219,1452.942383 
z"/>
<path fill="#B9E1DD" opacity="1.000000" stroke="none" 
	d="
M468.145142,1500.721191 
	C468.542786,1497.926636 469.271088,1495.709839 469.999695,1492.746460 
	C474.768372,1490.649292 479.309509,1489.577759 484.463104,1491.502319 
	C487.170044,1492.513184 491.030640,1491.620728 493.986328,1490.538818 
	C500.677704,1488.089233 502.382874,1488.077515 506.258057,1493.540161 
	C508.041748,1496.054565 509.003937,1499.151733 511.108429,1503.618530 
	C505.435028,1502.998535 501.727753,1502.593384 497.049713,1502.082275 
	C497.357635,1504.729736 498.012543,1506.869751 497.728394,1508.876587 
	C497.430328,1510.981445 496.762817,1513.814941 495.270660,1514.740601 
	C493.896393,1515.593384 491.067474,1514.690430 489.149445,1513.902832 
	C487.439453,1513.200928 486.098969,1511.598877 483.761505,1509.725952 
	C483.005371,1511.824585 482.519104,1513.174194 482.031647,1515.215576 
	C477.512238,1511.037720 472.993988,1506.168335 468.145142,1500.721191 
z"/>
<path fill="#3FA49D" opacity="1.000000" stroke="none" 
	d="
M656.508667,531.422607 
	C666.819092,542.636292 676.935425,554.067627 687.009521,565.536011 
	C710.492188,592.268799 733.960815,619.013916 757.412292,645.774109 
	C759.160522,647.769043 760.726379,649.923889 762.624023,652.632324 
	C762.871094,653.260193 762.369690,653.681091 761.554688,653.551025 
	C746.216858,637.561157 731.667786,621.725281 717.183289,605.830505 
	C710.945923,598.985962 704.701538,592.139038 698.711060,585.080383 
	C689.736633,574.505737 680.906982,563.805481 672.163269,553.038879 
	C666.589600,546.175720 661.282410,539.096313 655.855713,532.113831 
	C655.855713,532.113831 656.295349,531.657104 656.508667,531.422607 
z"/>
<path fill="#3FA49D" opacity="1.000000" stroke="none" 
	d="
M903.440430,1565.256836 
	C906.340454,1566.707397 909.404236,1568.831299 914.312744,1572.233887 
	C912.944092,1566.395752 912.376770,1562.002808 910.881653,1557.952271 
	C905.493347,1543.354858 899.356262,1529.021729 894.330322,1514.305908 
	C889.122620,1499.057617 882.747925,1484.022827 882.682922,1466.916382 
	C891.609924,1503.230225 907.544800,1537.646973 919.239380,1573.494385 
	C920.603638,1577.676025 921.666138,1581.956299 921.874939,1586.623535 
	C914.501587,1580.537109 908.054871,1574.100830 903.440430,1565.256836 
z"/>
<path fill="#3FA49D" opacity="1.000000" stroke="none" 
	d="
M882.587646,1461.201660 
	C877.544922,1454.452881 879.155945,1445.739624 880.813171,1438.238647 
	C883.513184,1426.017212 881.259949,1414.416626 879.089050,1402.949097 
	C875.187195,1382.338257 864.234863,1364.864990 850.270630,1349.561768 
	C843.894104,1342.573730 835.859314,1337.098877 828.394409,1330.267090 
	C843.263855,1335.823364 853.870728,1347.266113 862.745300,1360.255615 
	C880.495300,1386.236084 889.027283,1414.627686 883.609314,1446.364136 
	C882.830688,1450.925049 883.052734,1455.656860 882.587646,1461.201660 
z"/>
<path fill="#3FA49D" opacity="1.000000" stroke="none" 
	d="
M828.065552,1329.094360 
	C820.731873,1326.688354 813.054993,1323.804321 805.494141,1320.642700 
	C801.522522,1318.981934 797.784363,1316.612061 792.805725,1319.277222 
	C792.572571,1321.215820 792.026184,1323.457642 792.078857,1325.685303 
	C792.500183,1343.514038 794.111877,1361.212769 798.456482,1378.568604 
	C801.192322,1389.497803 807.859253,1398.067261 815.166016,1406.271851 
	C818.197632,1409.675903 820.950745,1413.328125 823.803345,1417.580078 
	C808.672668,1406.047974 796.577698,1391.579224 794.032043,1371.656738 
	C791.762878,1353.898193 790.915466,1335.956543 789.537720,1318.088257 
	C789.418335,1316.539795 790.025391,1314.935303 790.282715,1313.428711 
	C798.688477,1313.468750 811.283813,1318.593872 828.065552,1329.094360 
z"/>
<path fill="#3FA49D" opacity="1.000000" stroke="none" 
	d="
M829.448120,1425.259766 
	C831.420410,1426.002319 834.081604,1426.987915 835.620300,1428.884277 
	C845.105164,1440.573486 852.902771,1453.162231 857.006226,1467.919922 
	C863.431580,1491.027954 873.861572,1512.451416 885.511108,1533.328613 
	C887.929626,1537.662964 889.720825,1542.347290 891.740906,1547.619385 
	C886.061707,1539.079712 879.704285,1530.147339 875.004761,1520.414673 
	C868.671814,1507.299072 862.741882,1493.852905 858.220642,1480.031250 
	C851.747803,1460.243286 843.292175,1441.776245 829.448120,1425.259766 
z"/>
<path fill="#B9E1DD" opacity="1.000000" stroke="none" 
	d="
M504.375916,1538.576782 
	C509.957520,1537.834595 515.583191,1538.354858 521.261414,1534.932495 
	C526.615234,1531.705322 533.357727,1536.579834 533.949585,1542.951294 
	C534.101990,1544.591797 534.063171,1546.263062 533.957947,1547.910400 
	C533.856262,1549.503540 533.555847,1551.083862 533.273560,1553.183838 
	C530.411865,1553.504272 527.869568,1553.789062 524.423645,1554.153931 
	C517.229919,1549.218384 510.939758,1544.202637 504.375916,1538.576782 
z"/>
<path fill="#B7E0DC" opacity="1.000000" stroke="none" 
	d="
M411.864319,1430.829346 
	C413.156921,1428.938354 414.587799,1427.709351 416.017517,1426.481323 
	C420.770721,1428.255005 422.642700,1432.125977 423.540710,1436.221191 
	C423.894409,1437.833984 422.114868,1439.914429 420.582581,1441.915771 
	C417.239777,1438.530029 414.621185,1435.010742 411.864319,1430.829346 
z"/>
<path fill="#3FA49D" opacity="1.000000" stroke="none" 
	d="
M891.690308,1548.919922 
	C894.885315,1552.508789 898.175232,1556.793213 901.574951,1561.777832 
	C898.384827,1558.190552 895.085022,1553.902954 891.690308,1548.919922 
z"/>
<path fill="#B9E1DD" opacity="1.000000" stroke="none" 
	d="
M528.293579,1560.586426 
	C531.377991,1560.312988 535.837830,1558.765869 535.922607,1565.436035 
	C533.463440,1564.542725 531.018799,1562.860352 528.293579,1560.586426 
z"/>
<path fill="#3FA49D" opacity="1.000000" stroke="none" 
	d="
M827.577332,1422.942139 
	C828.090454,1422.776855 828.726990,1423.131958 829.375305,1424.070435 
	C828.824951,1424.256714 828.262817,1423.859497 827.577332,1422.942139 
z"/>
<path fill="#3FA49D" opacity="1.000000" stroke="none" 
	d="
M825.667053,1420.863159 
	C826.162903,1420.689697 826.795959,1421.043091 827.503723,1421.964600 
	C826.987000,1422.151855 826.395569,1421.770996 825.667053,1420.863159 
z"/>
<path fill="#3FA49D" opacity="1.000000" stroke="none" 
	d="
M823.815002,1418.707520 
	C824.297729,1418.564941 824.895325,1418.958130 825.575562,1419.905151 
	C825.082214,1420.053711 824.506042,1419.648438 823.815002,1418.707520 
z"/>
<path fill="#3FA49D" opacity="1.000000" stroke="none" 
	d="
M901.636841,1562.857422 
	C902.147095,1562.714355 902.765747,1563.098267 903.385620,1564.062744 
	C902.839600,1564.223755 902.292419,1563.803955 901.636841,1562.857422 
z"/>
<path fill="#15A59B" opacity="1.000000" stroke="none" 
	d="
M1375.978027,122.050751 
	C1376.013672,122.028580 1375.350830,121.506424 1375.350830,121.506424 
	C1375.350830,121.506424 1375.833862,121.691368 1375.861816,121.917053 
	C1375.889893,122.142738 1375.942505,122.072914 1375.978027,122.050751 
z"/>
<path fill="#B7E0DC" opacity="1.000000" stroke="none" 
	d="
M487.998169,1409.194458 
	C482.224457,1413.828247 486.566284,1419.656860 485.767303,1423.874512 
	C484.673004,1424.765991 484.223877,1425.436279 483.669067,1425.539551 
	C466.848633,1428.674438 465.841461,1419.610474 470.261261,1408.265625 
	C471.281281,1405.647217 473.512238,1403.500732 475.592957,1400.568604 
	C486.520142,1400.232544 486.520142,1400.232544 487.998169,1409.194458 
z"/>
<path fill="#F3FCFB" opacity="1.000000" stroke="none" 
	d="
M1028.235352,1627.847412 
	C1037.304688,1629.244263 1045.596924,1630.104736 1053.619629,1632.067017 
	C1061.671753,1634.036743 1064.288330,1639.753906 1060.903442,1647.219116 
	C1059.299194,1650.757080 1056.738892,1654.041748 1054.001221,1656.844971 
	C1049.365967,1661.591431 1044.455933,1666.124878 1039.289185,1670.285767 
	C1026.063110,1680.937744 1020.017639,1694.453247 1021.838257,1711.434814 
	C1022.429016,1716.944580 1022.745911,1722.483765 1023.244934,1728.719604 
	C1017.320923,1728.719604 1012.296204,1728.719604 1006.241089,1728.719604 
	C1006.809692,1724.533203 1007.160339,1721.313477 1007.694336,1718.124512 
	C1010.772888,1699.740967 1006.771667,1683.902100 991.765808,1671.616211 
	C986.122437,1666.995972 980.948303,1661.775269 975.800232,1656.589844 
	C973.503967,1654.277100 971.294983,1651.613892 969.921753,1648.697510 
	C965.654907,1639.636230 968.197998,1634.233398 977.919922,1631.523193 
	C994.125061,1627.005615 1010.677612,1626.537598 1028.235352,1627.847412 
z"/>
<path fill="#B9E1DD" opacity="1.000000" stroke="none" 
	d="
M507.887512,1527.349854 
	C511.744171,1520.665405 513.434204,1520.487549 519.448792,1526.086914 
	C516.087952,1529.253906 512.135925,1527.634766 507.887512,1527.349854 
z"/>
<path fill="#B7E0DC" opacity="1.000000" stroke="none" 
	d="
M423.290100,1357.077637 
	C422.237000,1356.311646 421.711212,1355.275146 421.185425,1354.238525 
	C422.260712,1353.791870 423.336029,1353.345337 424.411316,1352.898682 
	C424.213318,1354.201416 424.015381,1355.504272 423.290100,1357.077637 
z"/>
<path fill="#B7E0DC" opacity="1.000000" stroke="none" 
	d="
M452.925842,1415.973877 
	C454.093750,1415.177246 455.254395,1414.981812 456.415039,1414.786377 
	C456.404846,1415.606567 456.394592,1416.426758 456.384369,1417.246826 
	C455.229126,1417.022949 454.073883,1416.799072 452.925842,1415.973877 
z"/>
<path fill="#B7E0DC" opacity="1.000000" stroke="none" 
	d="
M517.070312,1508.780762 
	C517.302002,1507.883179 517.867188,1507.333008 518.468201,1506.825195 
	C518.483582,1506.812256 518.892883,1507.265747 519.118408,1507.501587 
	C518.548462,1508.045532 517.978577,1508.589600 517.070312,1508.780762 
z"/>
<path fill="#B9E1DD" opacity="1.000000" stroke="none" 
	d="
M549.219116,1521.070312 
	C550.116516,1521.301880 550.666748,1521.867065 551.174438,1522.468018 
	C551.187500,1522.483521 550.734070,1522.892944 550.498230,1523.118530 
	C549.954285,1522.548584 549.410278,1521.978516 549.219116,1521.070312 
z"/>
<path fill="#B7E0DC" opacity="1.000000" stroke="none" 
	d="
M434.570587,1409.933228 
	C434.000000,1410.000000 434.000000,1409.000000 434.000000,1408.500000 
	C434.993835,1407.773193 435.987701,1407.546509 436.981598,1407.319824 
	C436.368164,1408.168823 435.754669,1409.017700 434.570587,1409.933228 
z"/>
<path fill="#13A59B" opacity="1.000000" stroke="none" 
	d="
M655.289429,531.772095 
	C661.282410,539.096313 666.589600,546.175720 672.163269,553.038879 
	C680.906982,563.805481 689.736633,574.505737 698.711060,585.080383 
	C704.701538,592.139038 710.945923,598.985962 717.183289,605.830505 
	C731.667786,621.725281 746.216858,637.561157 761.303833,653.761292 
	C765.432129,659.212891 768.818176,664.459900 772.594421,669.409241 
	C783.048401,683.111023 793.557007,696.773987 804.242249,710.295715 
	C821.188232,731.740112 835.738892,754.793213 847.893433,779.150024 
	C861.960938,807.340088 877.022217,835.137085 886.862488,865.299683 
	C890.660828,876.942627 895.998718,888.082458 899.817383,899.719849 
	C905.700562,917.649292 911.187988,935.723633 916.265137,953.898071 
	C920.805115,970.149902 925.040100,986.519531 928.524109,1003.024170 
	C931.661560,1017.886780 933.671692,1032.991333 936.043274,1048.010620 
	C938.672852,1064.663086 941.333191,1081.314697 943.615784,1098.016479 
	C944.825684,1106.869629 945.244385,1115.829834 946.054993,1124.738525 
	C946.594116,1130.663330 947.081055,1136.596191 947.795349,1142.500732 
	C948.774841,1150.598145 947.702332,1158.455566 944.928955,1166.020142 
	C942.187134,1173.498657 935.083679,1176.733521 928.940369,1180.357544 
	C915.264893,1188.425049 900.373352,1192.569702 884.283508,1192.177979 
	C879.037048,1192.050049 873.671753,1193.932495 868.520996,1193.385864 
	C859.403503,1192.418213 849.765015,1191.785522 841.542664,1188.236816 
	C833.244751,1184.655518 828.872498,1176.274170 827.189087,1166.848389 
	C823.817139,1147.968018 820.215332,1129.122559 816.327087,1110.341675 
	C811.762451,1088.293701 806.951172,1066.293457 801.951843,1044.339722 
	C797.315430,1023.979553 792.448181,1003.668274 787.360229,983.416504 
	C785.265198,975.077271 782.450195,966.909241 779.748230,958.734192 
	C773.392578,939.504761 766.985535,920.291443 760.449280,901.122864 
	C755.734802,887.297058 751.032837,873.457397 745.859802,859.800232 
	C740.602234,845.919922 735.104187,832.110229 729.120422,818.530151 
	C719.387268,796.441467 709.501770,774.406982 699.051880,752.651550 
	C691.467407,736.861572 682.988831,721.494141 674.691895,706.054871 
	C661.357300,681.241211 646.875671,657.117676 631.063293,633.784668 
	C616.169983,611.807678 601.577026,589.627319 586.820068,567.557739 
	C576.342041,551.887329 565.810913,536.252380 554.750610,520.225586 
	C552.584045,516.214294 551.271912,512.406006 549.303284,508.974335 
	C541.539551,495.440521 532.726685,482.438660 525.871155,468.469879 
	C515.222229,446.771851 506.931000,424.277710 503.577515,399.910950 
	C499.961365,373.635864 503.374725,348.484192 510.298065,323.289581 
	C519.097595,291.267059 534.868225,262.705292 552.035156,234.625259 
	C563.363831,216.094910 577.056763,199.535995 591.493408,183.545288 
	C604.409241,169.239044 618.010681,155.550629 631.373047,141.650543 
	C632.659546,140.312271 634.394592,139.405319 636.240051,138.067123 
	C639.568542,142.813690 637.126770,146.280975 635.131531,149.490829 
	C624.791260,166.126511 614.293518,182.664246 603.863342,199.244110 
	C588.476379,223.703232 574.187622,248.807037 563.483582,275.669495 
	C558.236084,288.838196 555.028137,302.819214 550.889526,316.430298 
	C545.040833,335.665863 547.459656,354.895050 551.093262,374.074982 
	C554.575500,392.456238 560.423157,410.133911 570.460693,425.948120 
	C578.963074,439.343872 588.394836,452.194183 598.039551,464.808594 
	C608.699646,478.751129 619.870239,492.319519 631.201843,505.726807 
	C638.692871,514.589966 646.859192,522.882385 655.289429,531.772095 
z"/>
</svg>